<?xml version="1.0" encoding="utf-8"?>
<!-- Generator: Adobe Illustrator 24.0.1, SVG Export Plug-In . SVG Version: 6.00 Build 0)  -->
<svg version="1.1" id="Layer_1" xmlns="http://www.w3.org/2000/svg" xmlns:xlink="http://www.w3.org/1999/xlink" x="0px" y="0px"
	 viewBox="0 0 674 234.7" style="enable-background:new 0 0 674 234.7;" xml:space="preserve">
<style type="text/css">
	.st0{fill:#4F4F4F;}
	.st1{display:none;fill:#FFC408;enable-background:new    ;}
	.st2{font-family:'Gotham-Bold';}
	.st3{font-size:60px;}
</style>
<g>
	<path class="st0" d="M215.8,123.9L215.8,123.9c0-12.3,9.4-21.9,22.1-21.9c8.6,0,14.1,3.6,17.8,8.8l-8.8,6.8c-2.4-3-5.2-4.9-9.2-4.9
		c-5.9,0-10,5-10,11.1v0.1c0,6.3,4.1,11.2,10,11.2c4.4,0,7-2,9.5-5.1l8.8,6.2c-4,5.5-9.3,9.5-18.6,9.5
		C225.4,145.6,215.8,136.4,215.8,123.9z"/>
	<path class="st0" d="M258.4,123.9L258.4,123.9c0-12.2,9.7-21.9,22.7-21.9s22.6,9.7,22.6,21.7v0.1c0,12.1-9.7,21.8-22.7,21.8
		S258.4,136,258.4,123.9z M291.7,123.9L291.7,123.9c0-6.2-4.4-11.4-10.8-11.4s-10.6,5.2-10.6,11.2v0.1c0,6.1,4.4,11.3,10.7,11.3
		C287.5,135.1,291.7,130,291.7,123.9z"/>
	<path class="st0" d="M309.7,102.8h21.5c5.3,0,9,1.3,11.5,3.8c1.7,1.7,2.7,3.9,2.7,6.8v0.1c0,4.9-2.8,7.7-6.5,9.4
		c5.1,1.7,8.3,4.6,8.3,10.3v0.1c0,7.2-5.9,11.6-15.9,11.6h-21.7v-42.1H309.7z M328.3,119.5c3.5,0,5.5-1.2,5.5-3.7v-0.1
		c0-2.3-1.8-3.6-5.3-3.6H321v7.4C321,119.5,328.3,119.5,328.3,119.5z M330,135.4c3.5,0,5.6-1.4,5.6-3.8v-0.1c0-2.3-1.8-3.8-5.7-3.8
		H321v7.7L330,135.4L330,135.4z"/>
	<path class="st0" d="M362.9,129.1l-16-26.3h13.3l8.6,15.3l8.7-15.3h13l-16,26.1v15.9h-11.7v-15.7H362.9z"/>
	<path class="st0" d="M388.9,138.5l6.5-7.7c4.1,3.3,8.8,5,13.6,5c3.1,0,4.8-1.1,4.8-2.9v-0.1c0-1.7-1.4-2.7-7.1-4
		c-8.9-2-15.8-4.6-15.8-13.2v-0.1c0-7.8,6.2-13.4,16.3-13.4c7.1,0,12.7,1.9,17.3,5.6l-5.8,8.2c-3.8-2.7-8-4.1-11.8-4.1
		c-2.8,0-4.2,1.2-4.2,2.7v0.1c0,1.9,1.4,2.8,7.3,4.1c9.7,2.1,15.7,5.2,15.7,13.1v0.1c0,8.6-6.8,13.7-17,13.7
		C401.1,145.5,394,143.2,388.9,138.5z"/>
	<path class="st0" d="M440.2,113h-12.6v-10.2h36.8V113h-12.6v31.8h-11.6L440.2,113L440.2,113z"/>
	<path class="st0" d="M469,126.4v-23.6h11.8v23.3c0,6.1,3.1,8.9,7.7,8.9s7.7-2.8,7.7-8.6v-23.6H508v23.3c0,13.6-7.7,19.5-19.7,19.5
		S469,139.5,469,126.4z"/>
	<path class="st0" d="M515,102.8h16.2c15,0,23.7,8.6,23.7,20.8v0.1c0,12.1-8.8,21.1-23.9,21.1h-16V102.8z M531.4,134.5
		c7,0,11.6-3.8,11.6-10.6v-0.1c0-6.7-4.6-10.6-11.6-10.6h-4.7v21.4h4.7V134.5z"/>
	<path class="st0" d="M561.2,102.8h11.7v42h-11.7V102.8z"/>
	<path class="st0" d="M579.1,123.9L579.1,123.9c0-12.2,9.7-21.9,22.7-21.9s22.6,9.7,22.6,21.7v0.1c0,12.1-9.7,21.8-22.7,21.8
		C588.7,145.6,579.1,136,579.1,123.9z M612.5,123.9L612.5,123.9c0-6.2-4.4-11.4-10.8-11.4c-6.4,0-10.6,5.2-10.6,11.2v0.1
		c0,6.1,4.4,11.3,10.7,11.3C608.2,135.1,612.5,130,612.5,123.9z"/>
</g>
<text transform="matrix(1 0 0 1 210.9678 146.3657)" class="st1 st2 st3">COBYSTUDIO</text>
<g>
	<path class="st0" d="M121.2,118.5c0-0.2,0-0.4,0-0.6c0.1-7.9,0-19.6-0.1-20.2c-0.1,0-0.3-0.1-0.4-0.1c-0.2,0-0.5,0-0.7,0
		c-10.3,0-20.6,0-30.9,0c-0.2,0-0.5,0-0.7,0c-0.7,0-1.1-0.4-1.1-1.1c0-0.1,0-0.2,0-0.3c0-2.6,0-5.1,0-7.7c0-0.2,0-0.4,0-0.6
		c0.1-0.5,0.4-0.8,0.9-0.8c0.2,0,0.4,0,0.6,0c1.1,0,2.2,0,3.3,0c9.4,0,18.8,0,28.2,0c0.3,0,0.6,0,0.9-0.1c0.1-0.3,0.1-0.6,0.1-0.9
		c0-6.3,0-12.5,0-18.8c0-0.2,0-0.4,0-0.7c0-0.1,0-0.2,0-0.3c0.1-0.5,0.4-0.9,0.9-0.9c0.2,0,0.4,0,0.6,0c2.5,0,5,0,7.5,0
		c0.2,0,0.3,0,0.5,0c0.6,0,0.9,0.4,1,0.9c0,0.3,0,0.5,0,0.8c0,10.8,0,21.7,0,32.5c0,6,0,12,0,18c0,0.3,0,0.6,0,0.9
		c0.2,0,0.3,0.1,0.5,0.1c0.2,0,0.5,0,0.7,0c16.8,0,33.5,0,50.3,0c0.3,0,0.5,0,0.8,0c0.5,0,0.8,0.3,0.9,0.9c0,0.2,0,0.3,0,0.5
		c0,2.6,0,5.2,0,7.8c0,0,0,0.1,0,0.1c0,0.8-0.4,1.2-1.2,1.2c-0.2,0-0.4,0-0.6,0c-6.3,0-12.6,0-18.9,0c-0.3,0-0.6,0-0.9,0
		c0,0.2-0.1,0.3-0.1,0.4c0,0.2,0,0.4,0,0.7c0,6.1,0,12.1,0,18.2c0,0.2,0,0.4,0,0.7c0,0.5-0.4,0.9-0.8,0.9c-0.2,0-0.3,0-0.5,0
		c-2.6,0-5.2,0-7.8,0c-1.1,0-1.4-0.3-1.4-1.4c0-6.2,0-12.3,0-18.5c0-0.3,0-0.6,0-0.9c-0.2,0-0.3-0.1-0.4-0.1c-0.2,0-0.4,0-0.6,0
		c-6.3,0-12.6,0-19,0c-0.3,0-0.6,0-1,0c0,0.2-0.1,0.3-0.1,0.5c0,0.2,0,0.3,0,0.5c0,9.9,0,19.8,0,29.7c0,0.3,0,0.6,0.1,0.9
		c0.2,0,0.5,0,0.7,0c1.9,0,3.7,0,5.6,0c4.3,0,8.7,0,13,0c0.2,0,0.5,0,0.7,0c0.5,0,0.8,0.4,0.9,0.9c0,0.2,0,0.3,0,0.5
		c0,2.6,0,5.2,0,7.7c0,0.1,0,0.3,0,0.4c0,0.5-0.4,0.9-0.9,1c-0.3,0-0.5,0-0.8,0c-6.1,0-12.3,0-18.4,0c-0.3,0-0.6,0-0.9,0.1
		c0,0.3,0,0.5,0,0.8c0,2.8,0,5.6,0,8.5c0,0.2,0,0.4,0,0.6c0,0.6-0.5,1-1,1c-0.2,0-0.3,0-0.5,0c-2.5,0-5,0-7.5,0c-0.2,0-0.3,0-0.5,0
		c-0.5,0-1-0.4-1-1c0-0.2,0-0.4,0-0.7c0-15.1,0-30.3,0-45.4c0-1.7,0-3.4,0-5.1c0-0.2,0-0.5,0-0.7c-0.2,0-0.3-0.1-0.4-0.1
		c-0.3,0-0.5,0-0.8,0c-16.7,0-33.3,0-50,0c-0.2,0-0.5,0-0.7,0c-0.7,0-1.1-0.4-1.1-1.1c0-0.1,0-0.2,0-0.4c0-2.5,0-5.1,0-7.6
		c0-0.2,0-0.3,0-0.5c0-0.5,0.4-1,1-1c0.3,0,0.5,0,0.8,0c16.8,0,33.5,0,50.3,0C120.5,118.6,120.9,118.7,121.2,118.5z"/>
	<path class="st0" d="M152.7,92.3c0-3.7,0-7.3,0-11c0-0.2,0-0.5,0-0.7c0.1-0.6,0.4-0.9,1-1c0.1,0,0.3,0,0.4,0c2.6,0,5.2,0,7.7,0
		c0.1,0,0.3,0,0.4,0c0.5,0,0.8,0.3,0.9,0.8c0,0.2,0,0.5,0,0.7c0,2.7,0,5.5,0,8.2c0,4.7,0,9.3,0,14c0,0.2,0,0.4,0,0.7
		c-0.1,0.7-0.4,1-1.1,1c-0.1,0-0.2,0-0.4,0c-2.6,0-5.2,0-7.7,0c-0.9,0-1.4-0.3-1.4-1.4C152.7,99.9,152.7,96.1,152.7,92.3z"/>
	<path class="st0" d="M98,171.2c-3.1,0-6.1,0-9.2,0c-0.2,0-0.4,0-0.7,0c-0.5,0-0.8-0.3-0.9-0.8c0-0.2,0-0.4,0-0.6c0-2.6,0-5.2,0-7.7
		c0-0.2,0-0.3,0-0.5c0.1-0.5,0.4-0.8,0.9-0.9c0.2,0,0.3,0,0.5,0c6.2,0,12.5,0,18.7,0c1,0,1.4,0.4,1.4,1.4c0,2.6,0,5.2,0,7.7
		c0,0.2,0,0.4,0,0.6c-0.1,0.5-0.4,0.8-0.9,0.8c-0.2,0-0.4,0-0.7,0C104.2,171.2,101.1,171.2,98,171.2z"/>
	<path class="st0" d="M97.8,150.1c-3,0-5.9,0-8.9,0c-0.2,0-0.4,0-0.7,0c-0.5-0.1-0.8-0.4-0.9-0.9c0-0.2,0-0.3,0-0.5
		c0-2.6,0-5.2,0-7.7c0-0.2,0-0.3,0-0.5c0.1-0.5,0.4-0.8,0.8-0.9c0.2,0,0.4,0,0.6,0c6.1,0,12.1,0,18.2,0c0.2,0,0.4,0,0.6,0.1
		c0.4,0.1,0.7,0.4,0.7,0.8c0,0.2,0,0.4,0,0.6c0,2.6,0,5.1,0,7.7c0,0.2,0,0.4,0,0.6c-0.1,0.4-0.4,0.7-0.8,0.8c-0.2,0-0.5,0-0.7,0
		C103.7,150.1,100.7,150.1,97.8,150.1z"/>
</g>
</svg>
