<?xml version="1.0" encoding="utf-8"?>
<!-- Generator: Adobe Illustrator 24.0.1, SVG Export Plug-In . SVG Version: 6.00 Build 0)  -->
<svg version="1.1" id="Layer_1" xmlns="http://www.w3.org/2000/svg" xmlns:xlink="http://www.w3.org/1999/xlink" x="0px" y="0px"
	 viewBox="0 0 674 234.7" style="enable-background:new 0 0 674 234.7;" xml:space="preserve">
<style type="text/css">
	.st0{display:none;}
	.st1{display:inline;}
	.st2{display:inline;fill:#FFFFFF;}
	.st3{fill:none;stroke:#4F4F4F;stroke-width:3;stroke-linejoin:round;stroke-miterlimit:10;}
	.st4{fill:none;stroke:#4F4F4F;stroke-width:5;stroke-linejoin:round;stroke-miterlimit:10;}
	.st5{fill:none;stroke:#4F4F4F;stroke-width:6.5;stroke-linejoin:round;stroke-miterlimit:10;}
	.st6{fill:#4F4F4F;}
	.st7{fill:none;}
	.st8{display:none;fill:#FFC408;}
	.st9{font-family:'Gotham-Bold';}
	.st10{font-size:60px;}
</style>
<g>
	<g class="st0">
		<path class="st1" d="M243.1,143.1c0-14.9,0-29.6,0-44.5c1-0.1,1.9-0.2,2.7-0.2c6.4,0,12.8-0.2,19.2,0.1c3.2,0.1,6.6,0.5,9.6,1.7
			c7.8,3.2,8.9,13.3,2.1,18.4c-0.5,0.4-1.1,0.8-1.8,1.4c0.9,0.6,1.5,1.1,2.2,1.4c3.9,1.7,5.8,4.9,6,9c0.2,4.3-1.3,8.1-5.2,10.1
			c-2.7,1.4-5.8,2.6-8.8,2.7c-8.2,0.4-16.5,0.2-24.8,0.2C244,143.4,243.7,143.3,243.1,143.1z M255.3,116.5c2.9,0,5.5,0,8.2,0
			c1.7,0,2.6-0.1,3.6-0.6c1.5-0.6,1.6-1.8,1.6-3.5c0-1.2-0.6-2.4-1.9-3.1c-1.9-0.9-7.6-0.6-11.5-0.6
			C255.3,111.3,255.3,113.7,255.3,116.5z M255.3,133.1c2.9,0,5.5,0,8.2,0c1.7,0,2.6-0.1,3.6-0.6c1.5-0.6,1.6-1.8,1.6-3.5
			c0-1.2-0.6-2.4-1.9-3.1c-1.9-0.9-7.6-0.6-11.5-0.6C255.3,127.9,255.3,130.3,255.3,133.1z"/>
		<path class="st1" d="M463.5,143c0-14.8,0-29.5,0-44.2c9.3-0.5,18.5-1.4,27.4,1.2c9.9,3,15.4,11.2,15,21.6
			c-0.4,12.1-8.7,20.2-21.2,21.5c-6.7,0.7-13.5,0.2-20.2,0.3C464.2,143.4,464,143.2,463.5,143z M476.1,109.6c0,7.7,0,15.1,0,23.1
			c3.4-0.3,6.5-0.2,9.5-0.9c4.2-1,6.9-4,7.5-8.4c0.7-4.7-0.2-9.1-4.5-11.9C484.8,109,480.5,109.1,476.1,109.6z"/>
		<path class="st1" d="M532.3,120.6c0.1-13.4,11.3-23.4,24.8-23.1c13.5,0.3,23.9,10.9,23.5,23.9c-0.4,13.2-11.2,23.3-24.8,22.9
			C542.1,144,532,133.8,532.3,120.6z M556.2,108.8c-6.6,0-11.4,5.1-11.3,12.2c0.1,7.1,4.9,12.1,11.4,12.1c6.6,0,11.4-5.2,11.3-12.2
			C567.6,113.9,562.8,108.7,556.2,108.8z"/>
		<path class="st1" d="M214.9,97.6c-13.5-1.1-25.7,8.5-26.2,22.1c-1,12.7,8.5,23.5,21.7,24.6c13.9,1.2,25.5-8.2,26.4-21.9
			C237.7,109.6,228.7,98.8,214.9,97.6z M212.8,133.1c-6.3,0-11.4-5.4-11.4-12.2c0-6.7,5.1-12.2,11.4-12.2c6.3,0,11.4,5.4,11.4,12.2
			C224.2,127.7,219.1,133.1,212.8,133.1z"/>
		<path class="st1" d="M414.2,98.6c4,0,7.8,0,12,0c0.1,1.2,0.2,2.2,0.2,3.3c0,6.3,0,12.6,0,18.9c0,1.5,0,3,0.1,4.5
			c0.5,6.2,4.9,9,11.2,7.4c3.3-0.8,5.2-4,5.3-8.4c0.1-7.5,0-15.1,0.1-22.7c0-1,0-1.9,0-3c4.3,0,8.2,0,12.3,0
			c0.1,0.7,0.3,1.3,0.3,1.9c0,7.8,0.1,15.6-0.1,23.4c-0.1,2.8-0.5,5.7-1.3,8.4c-1.6,5-4.9,8.6-9.9,10.4c-7.1,2.5-14.1,2.5-21-0.7
			c-5.6-2.6-8.6-7.5-8.9-13.3c-0.6-9.6-0.3-19.3-0.4-29C413.9,99.4,414,99.1,414.2,98.6z"/>
		<path class="st1" d="M366,103.5c-2.1,3-4,5.8-5.9,8.4c-2.9-1.2-5.4-2.6-8.1-3.4c-1.8-0.6-3.8-0.5-5.8-0.6c-1.5,0-2.8,0.7-3.2,2.3
			c-0.4,1.8,0.7,2.9,2.3,3.4c3.2,1,6.5,1.8,9.7,2.8c1.9,0.6,3.8,1.4,5.7,2.3c9.3,4.6,7.8,17.8,0.9,22.2c-2.8,1.8-5.8,2.8-9,3.1
			c-8.3,0.8-16.1-0.9-22.9-6c-0.4-0.3-0.8-0.7-1.4-1.3c2.2-2.7,4.4-5.3,6.6-8.1c1.1,0.7,1.9,1.2,2.7,1.7c3.7,2.3,7.6,3.7,12.1,3.6
			c0.7,0,1.4,0,2.1-0.2c1.4-0.3,2.5-0.9,2.7-2.5c0.2-1.6-0.6-2.6-1.9-3.1c-2.1-0.8-4.2-1.3-6.3-2c-3.1-1-6.3-1.8-9.3-3.2
			c-9.6-4.5-7.9-17.3-1.6-21.8c5.4-3.8,11.4-4.3,17.6-3.1c3.5,0.6,6.8,2.3,10.2,3.6C364.1,101.9,364.8,102.6,366,103.5z"/>
		<path class="st1" d="M185.6,107c-2.8,2.2-5.7,4.5-8.8,6.9c-0.8-0.7-1.5-1.2-2.1-1.8c-3.3-3.1-7.2-4.3-11.5-2.6
			c-4.5,1.7-6.6,5.5-7,10.1c-0.4,5.3,1.2,9.7,6.1,12.4c3.8,2.1,9,1.1,12.5-2.2c0.6-0.6,1-1.5,1.6-2.6c3.6,2.6,6.5,4.7,9.4,6.7
			c-3.6,7.6-13.5,11.6-22.9,10.1c-10.8-1.7-18.9-10.4-19.4-21.7c-0.5-10.8,5.8-20.5,15.7-23.6C169.8,95.5,180.8,98.8,185.6,107z"/>
		<path class="st1" d="M312.8,143.2c-4.3,0-8.2,0-12.4,0c0-2.9,0,0.5,0-8.4s-1-10.5-4.2-15.2c-4.1-6-7.6-12.4-11.4-18.6
			c-0.4-0.7-0.7-1.3-1.3-2.4c4.8,0,9.2,0,13.9,0c2.9,5,5.8,10.2,9.2,16c3.3-5.7,6.3-10.9,9.2-16.1c4.5,0,8.8,0,13.6,0
			c-0.6,1.1-1,2-1.5,2.8c-4.4,7.2-8.7,14.4-13.2,21.6c-1.4,2.3-2.1,5.1-2.1,12.8S312.8,138.7,312.8,143.2z"/>
		<path class="st1" d="M395.5,143.2c-4.5,0-8.3,0-12.6,0c0-11.3,0-22.3,0-33.9c-4.6,0-8.8,0-13.2,0c0-3.9,0-7.2,0-10.7
			c13,0,25.8,0,38.9,0c0,3.5,0,6.8,0,10.6c-4.3,0-8.5,0-13.1,0C395.5,120.8,395.5,131.9,395.5,143.2z"/>
		<path class="st1" d="M513,98.6c4,0,7.9,0,12,0c0,14.9,0,29.7,0,44.6c-4,0-7.9,0-12,0C513,128.3,513,113.6,513,98.6z"/>
		<path class="st2" d="M476.1,109.6c4.4-0.5,8.7-0.6,12.4,1.9c4.4,2.8,5.2,7.2,4.5,11.9c-0.6,4.4-3.3,7.3-7.5,8.4
			c-2.9,0.7-6.1,0.6-9.5,0.9C476.1,124.7,476.1,117.2,476.1,109.6z"/>
	</g>
</g>
<g>
	<path class="st3" d="M62.7,53.8c2.8,0,7.8-1.8,7.8-7.7c0,0,0.8,7.7,8,7.7c-4.1,0-8.1,3.3-8.1,8.1C70.4,59.3,69,53.8,62.7,53.8z"/>
	<path class="st3" d="M112.6,53.8c2.8,0,7.8-1.8,7.8-7.7c0,0,0.8,7.7,8,7.7c-4.1,0-8.1,3.3-8.1,8.1
		C120.3,59.3,118.9,53.8,112.6,53.8z"/>
	<path class="st3" d="M60.1,110.2c2.8,0,7.8-1.8,7.8-7.7c0,0,0.8,7.7,8,7.7c-4.1,0-8.1,3.3-8.1,8.1
		C67.7,115.8,66.3,110.2,60.1,110.2z"/>
	<polyline class="st4" points="128.4,133.9 123,128.5 118.4,133.1 112.9,117.8 127.9,123.2 123,128.5 	"/>
	<path class="st5" d="M99.3,134c0-3-3-9.5-10.3-9.5c-6.1,0-10.7,3.9-10.7,11.1c0-2.2-0.2-6.4-5.8-6.4c-3.2,0-4.3,1.7-4.5,2.1
		c-0.1-0.7-1.4-8.5-10.1-8.5"/>
	<path class="st5" d="M88.9,126.3V97.9c0,0,0,6.6-7.1,5.2c-7-1.4-6.4-13.4,2-12.5"/>
	<path class="st5" d="M101.5,122.3V97.9c0,0,0,6.6,7.1,5.2c7-1.4,6.4-13.4-2-12.5"/>
	<path class="st5" d="M74,90.4c-1.3-1.3-6.5-1.8-6.1-8.4c0.4-6.6,5.1-9,8.3-8.6c3.9,0.6,5.2,3.1,6.3,5.7
		c-3.2-5.9-5.3-21.9,12.5-21.9c17.7,0,16.4,13.7,13.3,22.5c1.3-3.5,3.8-5.8,6.6-6c5.8-0.4,9,5.5,7.6,11.3c-1.4,5.8-8.9,7.3-10.3,7.7
		"/>
	<polyline class="st5" points="62.8,89.3 50.5,89.3 50.5,143.5 139.3,143.5 139.3,89.3 127.1,89.3 	"/>
	<path class="st5" d="M60,78.3H47.8c-3.9,0-7,3.1-7,7v63.5"/>
	<path class="st5" d="M130.1,78.9h13.3c3.6,0,6.5,2.9,6.5,6.5v70.6h1c2.6,0,4.8,2.1,4.8,4.8v10.2c0,2.6-2.1,4.8-4.8,4.8h-105"/>
	<path class="st5" d="M41,175.8h-3.2c-2,0-3.6-1.6-3.6-3.6v-12.8c0-2,1.6-3.6,3.6-3.6h36.4l6.2,6.2h29.9l5-6H149"/>
</g>
<g>
	<path class="st6" d="M215.8,125.1V125c0-12.2,9.4-21.8,22.1-21.8c8.6,0,14.1,3.6,17.8,8.8l-8.8,6.8c-2.4-3-5.2-4.9-9.2-4.9
		c-5.9,0-10,5-10,11.1v0.1c0,6.3,4.1,11.2,10,11.2c4.4,0,7-2,9.5-5.1l8.8,6.2c-4,5.5-9.3,9.5-18.6,9.5
		C225.4,146.8,215.8,137.6,215.8,125.1z"/>
	<path class="st6" d="M258.4,125.1V125c0-12.1,9.7-21.8,22.7-21.8s22.6,9.7,22.6,21.7v0.1c0,12.1-9.7,21.8-22.7,21.8
		S258.4,137.2,258.4,125.1z M291.7,125.1V125c0-6.1-4.4-11.3-10.8-11.3c-6.4,0-10.6,5.2-10.6,11.2v0.1c0,6.1,4.4,11.3,10.7,11.3
		C287.5,136.3,291.7,131.2,291.7,125.1z"/>
	<path class="st6" d="M309.7,104h21.5c5.3,0,9,1.3,11.5,3.8c1.7,1.7,2.7,3.9,2.7,6.8v0.1c0,4.9-2.8,7.7-6.5,9.4
		c5.1,1.7,8.3,4.6,8.3,10.3v0.1c0,7.2-5.9,11.6-15.9,11.6h-21.7V104z M328.3,120.7c3.5,0,5.5-1.2,5.5-3.7v-0.1
		c0-2.3-1.8-3.6-5.3-3.6H321v7.4H328.3z M330,136.6c3.5,0,5.6-1.4,5.6-3.8v-0.1c0-2.3-1.8-3.8-5.7-3.8H321v7.7H330z"/>
	<path class="st6" d="M362.9,130.3l-16-26.3h13.3l8.6,15.3l8.7-15.3h13l-16,26.1V146h-11.7V130.3z"/>
	<path class="st6" d="M388.9,139.7l6.5-7.7c4.1,3.3,8.8,5,13.6,5c3.1,0,4.8-1.1,4.8-2.9V134c0-1.7-1.4-2.7-7.1-4
		c-8.9-2-15.8-4.6-15.8-13.2v-0.1c0-7.8,6.2-13.4,16.3-13.4c7.1,0,12.7,1.9,17.3,5.6l-5.8,8.2c-3.8-2.7-8-4.1-11.8-4.1
		c-2.8,0-4.2,1.2-4.2,2.7v0.1c0,1.9,1.4,2.8,7.3,4.1c9.7,2.1,15.7,5.2,15.7,13.1v0.1c0,8.6-6.8,13.7-17,13.7
		C401.1,146.7,394,144.4,388.9,139.7z"/>
	<path class="st6" d="M440.2,114.2h-12.6V104h36.8v10.2h-12.6V146h-11.6V114.2z"/>
	<path class="st6" d="M469,127.6V104h11.8v23.3c0,6.1,3.1,8.9,7.7,8.9s7.7-2.8,7.7-8.6V104h11.8v23.3c0,13.6-7.7,19.5-19.7,19.5
		S469,140.7,469,127.6z"/>
	<path class="st6" d="M515,104h16.2c15,0,23.7,8.6,23.7,20.8v0.1c0,12.1-8.8,21.1-23.9,21.1h-16V104z M531.4,135.7
		c7,0,11.6-3.8,11.6-10.6v-0.1c0-6.7-4.6-10.6-11.6-10.6h-4.7v21.4H531.4z"/>
	<path class="st6" d="M561.2,104h11.7v42h-11.7V104z"/>
	<path class="st6" d="M579.1,125.1V125c0-12.1,9.7-21.8,22.7-21.8s22.6,9.7,22.6,21.7v0.1c0,12.1-9.7,21.8-22.7,21.8
		C588.7,146.8,579.1,137.2,579.1,125.1z M612.5,125.1V125c0-6.1-4.4-11.3-10.8-11.3c-6.4,0-10.6,5.2-10.6,11.2v0.1
		c0,6.1,4.4,11.3,10.7,11.3C608.2,136.3,612.5,131.2,612.5,125.1z"/>
</g>
<rect x="211" y="102.6" class="st7" width="562.1" height="57.3"/>
<text transform="matrix(1 0 0 1 210.9678 146.3657)" class="st8 st9 st10">COBYSTUDIO</text>
</svg>
